# xmcd
# Copyright (C) 1995-1998 Ti Kan
#
# Track frame offsets:
#       150
#       3275
#       22887
#       38218
#       61634
#       75628
#       102877
#       128652
#       143212
#       168467
#       196015
#       214537
#
# Disc length: 3119 seconds
#
# Revision: 0
# Processed by: cddbd v1.5.2PL0 Copyright (c) Steve Scherf et al.
# Submitted via: CD-Transfer v1.0
#
DISCID=8a0c2d0c
DTITLE=Killingjazzhardcorebaby - Killingjazzhardcorebaby
DYEAR=09
DGENRE=
TTITLE0=Log In
TTITLE1=No Sorrow For Tomorrow
TTITLE2=Platonis Lovers
TTITLE3=Shine
TTITLE4=Toxicated
TTITLE5=Losin My Mind
TTITLE6=Felt Love
TTITLE7=Aggressive Tenderness
TTITLE8=Biliken
TTITLE9=My Baby Missed The Party
TTITLE10=Secret Nerve
TTITLE11=Malo Sutra
EXTD=
EXTT0=
EXTT1=
EXTT2=
EXTT3=
EXTT4=
EXTT5=
EXTT6=
EXTT7=
EXTT8=
EXTT9=
EXTT10=
EXTT11=
PLAYORDER=
